<?xml version="1.0" encoding="UTF-8" standalone="no"?>
<svg
   xmlns:dc="http://purl.org/dc/elements/1.1/"
   xmlns:cc="http://creativecommons.org/ns#"
   xmlns:rdf="http://www.w3.org/1999/02/22-rdf-syntax-ns#"
   xmlns:svg="http://www.w3.org/2000/svg"
   xmlns="http://www.w3.org/2000/svg"
   xmlns:sodipodi="http://sodipodi.sourceforge.net/DTD/sodipodi-0.dtd"
   xmlns:inkscape="http://www.inkscape.org/namespaces/inkscape"
   width="64"
   version="1"
   height="64"
   id="svg945"
   sodipodi:docname="icon.svg"
   inkscape:version="0.92.2 (unknown)"
   inkscape:export-filename="/home/jeremi360/DevProjects/Python/PyFox/icons/icon.png"
   inkscape:export-xdpi="96"
   inkscape:export-ydpi="96">
  <metadata
     id="metadata951">
    <rdf:RDF>
      <cc:Work
         rdf:about="">
        <dc:format>image/svg+xml</dc:format>
        <dc:type
           rdf:resource="http://purl.org/dc/dcmitype/StillImage" />
        <dc:title></dc:title>
      </cc:Work>
    </rdf:RDF>
  </metadata>
  <defs
     id="defs949" />
  <sodipodi:namedview
     pagecolor="#ffffff"
     bordercolor="#666666"
     borderopacity="1"
     objecttolerance="10"
     gridtolerance="10"
     guidetolerance="10"
     inkscape:pageopacity="0"
     inkscape:pageshadow="2"
     inkscape:window-width="1366"
     inkscape:window-height="667"
     id="namedview947"
     showgrid="false"
     inkscape:snap-global="false"
     inkscape:zoom="7.359375"
     inkscape:cx="32"
     inkscape:cy="30.69136"
     inkscape:window-x="0"
     inkscape:window-y="72"
     inkscape:window-maximized="1"
     inkscape:current-layer="svg945" />
  <g
     id="g1078"
     transform="translate(-1.15923,6.21004)">
    <path
       id="path990"
       style="fill:#ffc851"
       d="m 44.74093,20.32247 v 6 c 0,3.324 -2.676,6 -6,6 h -12 c 0,0 -6,0 -6,6 v 10.5 c 0,4.156 4.684,7.5 10.5,7.5 h 3 c 5.816,0 10.5,-3.344 10.5,-7.5 v -4.5 h 4.5 c 4.156,0 7.5,-4.684 7.5,-10.5 v -3 c 0,-5.816 -3.344,-10.5 -7.5,-10.5 z"
       inkscape:connector-curvature="0" />
    <path
       id="path992"
       d="m 38.74093,49.32247 a 2,2 0 0 1 2,2 2,2 0 0 1 -2,2 2,2 0 0 1 -2,-2 2,2 0 0 1 2,-2 z"
       style="color:#000000;opacity:0.2"
       inkscape:connector-curvature="0" />
    <path
       id="path994"
       style="fill:#ffffff"
       d="m 38.74093,48.32247 a 2,2 0 0 1 2,2 2,2 0 0 1 -2,2 2,2 0 0 1 -2,-2 2,2 0 0 1 2,-2 z"
       inkscape:connector-curvature="0" />
    <path
       id="path1004"
       d="m 44.74093,20.32247 v 1 h 4.5 c 4.156,0 7.5,4.684 7.5,10.5 v -1 c 0,-5.816 -3.344,-10.5 -7.5,-10.5 z m 0,6 c 0,3.324 -2.676,6 -6,6 h -12 c 0,0 -6,0 -6,6 v 1 c 0,-6 6,-6 6,-6 h 12 c 3.324,0 6,-2.676 6,-6 z"
       style="opacity:0.1;fill:#ffffff"
       inkscape:connector-curvature="0" />
    <path
       id="path1008"
       d="m 56.74093,33.82247 c 0,5.816 -3.344,10.5 -7.5,10.5 h -4.5 v 1 h 4.5 c 4.156,0 7.5,-4.684 7.5,-10.5 z m -36,15 v 1 c 0,4.155 4.683,7.5 10.5,7.5 h 3 c 5.816,0 10.5,-3.344 10.5,-7.5 v -1 c 0,4.156 -4.684,7.5 -10.5,7.5 h -3 c -5.817,0 -10.5,-3.345 -10.5,-7.5 z"
       style="color:#000000;opacity:0.2"
       inkscape:connector-curvature="0" />
  </g>
  <g
     id="g1071"
     transform="translate(41.351072,-10.510207)">
    <path
       id="path996"
       style="fill:#4795d1"
       d="m -13.328072,10.360687 c -5.816,0 -10.5,3.345 -10.5,7.5 v 4.5 h -4.5 c -4.155,0 -7.5,4.684 -7.5,10.5 v 3 c 0,5.816 3.345,10.5 7.5,10.5 h 4.5 v -6 c 0,-3.324 2.676,-6 6,-6 h 11.9999999 c 0,0 5.99999998,0 5.99999998,-6 v -10.5 c 0,-4.155 -4.68399998,-7.5 -10.49999988,-7.5 z"
       inkscape:connector-curvature="0" />
    <path
       id="path998"
       d="m -17.828072,15.360687 a 2,2 0 0 1 2,2 2,2 0 0 1 -2,2 2,2 0 0 1 -2,-2 2,2 0 0 1 2,-2 z"
       style="color:#000000;opacity:0.2"
       inkscape:connector-curvature="0" />
    <path
       id="path1000"
       style="fill:#ffffff"
       d="m -17.828072,14.360687 a 2,2 0 0 1 2,2 2,2 0 0 1 -2,2 2,2 0 0 1 -2,-2 2,2 0 0 1 2,-2 z"
       inkscape:connector-curvature="0" />
    <path
       id="path1002"
       d="m -13.328072,10.360687 c -5.816,0 -10.5,3.345 -10.5,7.5 v 1 c 0,-4.155 4.684,-7.5 10.5,-7.5 h 3 c 5.8159999,0 10.49999988,3.345 10.49999988,7.5 v -1 c 0,-4.155 -4.68399998,-7.5 -10.49999988,-7.5 z m -15,12 c -4.155,0 -7.5,4.684 -7.5,10.5 v 1 c 0,-5.816 3.345,-10.5 7.5,-10.5 h 4.5 v -1 z"
       style="opacity:0.1;fill:#ffffff"
       inkscape:connector-curvature="0" />
    <path
       id="path1006"
       d="m 0.17192788,28.360687 c 0,6 -5.99999998,6 -5.99999998,6 H -17.828072 c -3.324,0 -6,2.676 -6,6 v 1 c 0,-3.324 2.676,-6 6,-6 h 11.9999999 c 0,0 5.99999998,0 5.99999998,-6 z m -35.99999988,7.5 v 1 c 0,5.816 3.345,10.5 7.5,10.5 h 4.5 v -1 h -4.5 c -4.155,0 -7.5,-4.684 -7.5,-10.5 z"
       style="color:#000000;opacity:0.2"
       inkscape:connector-curvature="0" />
  </g>
  <g
     id="g1083"
     transform="matrix(0.76355655,0,0,0.74604317,5.8999007,6.7367171)">
    <rect
       id="rect933"
       x="-60"
       y="-60"
       width="55.992001"
       height="55.993999"
       transform="matrix(0,-1,-1,0,0,0)"
       rx="27.997"
       style="fill:#4882e3"
       ry="27.997" />
    <path
       id="path935"
       d="M 28.422,4.2403 C 24.7804,4.70185 21.3688,5.8627 18.309,7.5759 l 1.9877,0.49758 1.285,0.89948 v 0.77099 l 2.1872,1.4162 -0.514,2.0588 -1.1559,-0.8997 -0.77391,0.8995 -0.8999,0.51394 -0.51414,-1.5446 0.25617,-0.8995 -0.25617,-0.64253 -1.2879,-1.1593 h -0.514 l 0.514,1.2877 v 1.1565 c -0.50614,-0.14078 -1.0265,-0.19098 -1.5446,-0.25697 l 1.4162,1.0307 0.1285,0.64249 1.6732,1.4162 1.6705,-0.3855 v -1.0307 l 0.77373,0.51398 -0.3855,0.90222 h 1.285 l 0.64523,1.1565 0.77101,0.90222 1.5447,0.25699 -0.90224,0.89948 -0.25701,0.90222 h 1.1592 l 1.4135,0.77099 v 2.3157 h -0.64251 l -0.64251,0.64249 -1.4162,-0.64249 -0.514,-1.4162 -1.0307,-0.64249 -0.12851,-0.51398 -1.6705,-0.3855 -0.90224,1.028 -1.028,0.51398 0.64251,1.1592 -0.8995,-0.25699 -0.51674,-1.1592 1.1592,-1.285 h -0.514 l -1.0309,0.8995 -0.25717,1.2879 -0.8995,1.1559 -0.25697,-1.6698 -0.51674,-0.25997 c -0.54484,0.5771 -0.95461,1.2807 -1.4135,1.9302 l -1.8017,0.12851 -0.90224,0.64523 0.38824,0.64249 1.028,0.89948 h 1.4162 l 1.9302,-0.64249 0.8995,0.1285 0.77101,0.77099 2.0588,-2.0588 1.4162,-0.3855 2.0588,0.25699 1.9302,0.51672 c 1.0511,1.2159 2.0918,2.4663 3.0866,3.7292 l 1.1592,2.9609 -0.51674,0.51398 1.0307,1.5447 -1.1592,2.7011 c -0.93703,1.0815 -1.8941,2.133 -2.8297,3.2152 l -1.4162,-1.1565 -0.514,0.64249 -1.5447,-0.8995 -0.514,0.514 h -1.4135 l -0.90224,1.028 0.514,1.8017 -1.028,1.1592 0.1285,2.0588 -0.8995,1.542 0.64251,1.2877 c 0.05485,0.93637 0.12851,1.8931 0.12851,2.8297 -0.45161,1.2688 -0.98979,2.4539 -1.4162,3.732 l -0.25699,2.0588 v 1.028 h -0.77099 l -1.2877,-0.77099 h -1.2276 c 4.5847,3.2768 10.192,5.2246 16.281,5.2246 4.5729,0 8.8704,-1.1092 12.675,-3.0375 l 0.06289,-0.1285 -0.90224,-0.8995 -0.25701,-0.90222 -1.4135,-0.3855 -1.0307,-2.8297 0.25701,-0.64249 -0.64251,-1.1592 -1.6732,-0.3855 -0.77101,-1.9302 0.1285,-2.5727 -1.2877,-1.8017 -0.1285,-1.8017 c 1.7557,-0.88826 3.4056,-1.7866 5.1482,-2.7011 l 0.8995,-1.8017 1.5447,-0.3855 0.8995,-2.3157 2.0588,0.25699 1.9302,-1.4135 1.9302,1.799 v 0.25699 c 0.58257,-0.17168 1.283,-0.18874 1.8017,-0.51398 l 0.3855,-1.285 v -1.2877 l 1.285,0.12851 c -0.10703,-0.86492 -0.27805,-1.8364 -0.3855,-2.7011 h 0.77373 l 0.77099,1.028 0.77101,0.3855 1.0307,-0.64249 0.1285,-1.285 -0.1285,-1.5447 -1.6733,-1.1592 h -1.285 l -0.25973,-0.77099 -1.542,0.3855 -1.1592,1.4162 -0.25701,-2.4441 -2.0588,-1.6732 -0.64251,-1.9302 -1.5447,-0.64249 -0.8995,-1.1592 -1.9302,-0.3855 -0.90224,-1.5447 h 2.8325 l -1.8017,-0.77099 h -1.2877 l -1.6705,-0.64249 -0.25973,1.6705 -0.77099,-1.1565 0.8995,-0.64249 -0.25699,-0.64523 0.64525,-0.64249 0.77099,-0.1285 -0.25699,-0.77099 0.64251,-1.1592 1.2877,0.51398 -0.25701,-1.028 1.542,-0.90222 1.1592,2.1872 -0.1285,0.64523 1.1565,0.51398 0.77373,1.6732 0.25701,-1.5447 2.0588,-0.77099 0.3855,-1.1592 -2.7013,-1.5447 -1.1592,-1.1565 -0.1285,-1.4162 0.06835,-0.041009 c -0.294,-0.1953 -0.61,-0.3685 -0.916,-0.5551 l 0.46479,1.1155 h -1.2877 l -0.3855,-1.0307 -1.1565,0.89948 h -1.0307 v -1.028 l 1.1592,-0.51672 1.028,0.64523 -0.12851,-0.25699 c -0.515,-0.3736 -1.013,-0.7999 -1.539,-1.1593 l -1.2877,0.38824 c -0.8,0.5544 -1.515,1.1169 -2.316,1.6705 l -1.288,-1.1565 1.417,-0.514 0.514,-1.2877 1.003,-0.1121 c -0.542,-0.2002 -1.082,-0.4037 -1.638,-0.5711 l -2.5809,1.8427 v 1.1565 l 1.028,1.1592 -1.4135,2.8297 -1.0307,-0.51398 -1.1565,-1.9302 c -1.727,-0.545 -3.389,-1.1769 -5.021,-1.9304 l 0.1285,0.77099 -0.77101,0.51672 -1.4162,-1.0307 0.64525,-0.77099 1.028,0.51398 0.1285,-0.1285 -1.2639,-3.4476 z M 15.55,9.3585 c -0.43715,0.31756 -0.8811,0.62593 -1.2987,0.96769 l 0.51126,0.57688 1.4162,-1.5447 h -0.62883 z m 10.663,1.4162 h 0.77373 v 0.77099 l -0.514,0.64249 v 1.1592 l 0.25701,1.6732 -1.2877,-0.25699 -1.028,-0.90222 0.8995,-0.89948 c 0.28203,-0.76667 0.54634,-1.4518 0.8995,-2.1872 z m 1.9302,1.6732 0.77373,0.25699 -0.12851,1.542 -1.1592,-0.64249 0.514,-1.1565 z m -20.07,13.122 -1.1593,1.286 -1.285,-0.128 c -0.45231,0.41895 -0.90198,0.77859 -1.3233,1.1975 -0.19272,1.3311 -0.29801,2.6929 -0.29801,4.0791 0,9.1928 4.4069,17.296 11.21,22.393 l -1.7416,-2.0678 0.25977,-0.8999 -1.5446,-1.2879 1.1565,-1.1579 -1.2851,-1.0279 -1.2877,-0.77191 -0.514,-0.64523 0.3855,-1.4135 v -3.6034 l -1.0279,-2.1878 -1.1593,-1.2879 -1.4162,-3.3436 v -0.90222 c 0.66224,0.08513 1.2823,0.2128 1.9302,0.25973 l -1.285,-1.4162 -1.8017,-1.2877 -1.0307,-1.1565 v -1.1592 c 0.22077,-0.42595 0.42315,-0.98989 0.64533,-1.4138 l 0.8995,1.1565 0.64251,-0.89948 1.0307,-0.77371 v -1.542 z m 5.017,0.64249 -1.1565,1.4135 -1.5447,3.2178 -0.8995,1.028 0.514,1.1592 -0.8995,1.028 c 0.3759,0.02472 0.77021,0 1.1565,0 0.70172,-1.5045 1.2674,-3.0575 1.8017,-4.6315 l 0.8995,-1.028 0.51674,-1.9302 -0.38824,-0.25699 z m 46.891,5.0574 c -0.05131,0.08969 -0.18592,0.34722 -0.18592,0.34722 l -2.1872,1.2877 -2.3157,0.64249 -0.90224,1.2877 -1.542,1.1565 -0.77373,-0.25699 -0.64251,0.3855 v 0.12851 l 0.77101,2.4441 0.64523,0.90222 -0.12851,0.51398 0.514,1.9302 -1.9302,3.475 -1.9302,1.799 -0.8995,1.1592 0.1285,2.7011 -0.64525,1.4162 0.47299,2.0778 c 7.0088,-5.0786 11.57,-13.307 11.57,-22.661 0,-0.24647 -0.0126,-0.49054 -0.019,-0.73544 z"
       style="opacity:0.2"
       inkscape:connector-curvature="0" />
    <path
       id="path937"
       d="m 32.004,4.0059 c -15.51,0 -27.998,12.488 -27.998,27.998 -1e-4,0.113 0.0112,0.223 0.0174,0.334 0.3505,-15.201 12.693,-27.334 27.981,-27.334 15.288,-10e-5 27.63,12.133 27.98,27.334 0.007,-0.111 0.018,-0.221 0.018,-0.334 0,-15.51 -12.488,-27.998 -27.998,-27.998 z"
       style="opacity:0.2;fill:#ffffff"
       inkscape:connector-curvature="0" />
  </g>
</svg>
