<?xml version="1.0" encoding="UTF-8" standalone="no"?>
<!-- Created with Inkscape (http://www.inkscape.org/) -->

<svg
   xmlns:dc="http://purl.org/dc/elements/1.1/"
   xmlns:cc="http://creativecommons.org/ns#"
   xmlns:rdf="http://www.w3.org/1999/02/22-rdf-syntax-ns#"
   xmlns:svg="http://www.w3.org/2000/svg"
   xmlns="http://www.w3.org/2000/svg"
   xmlns:xlink="http://www.w3.org/1999/xlink"
   xmlns:sodipodi="http://sodipodi.sourceforge.net/DTD/sodipodi-0.dtd"
   xmlns:inkscape="http://www.inkscape.org/namespaces/inkscape"
   width="237.14285"
   height="217.14285"
   id="svg2"
   version="1.1"
   inkscape:version="0.48.4 r9939"
   sodipodi:docname="logo.svg"
   inkscape:export-filename="/home/jeremi/Projects/RERows/icons/logo.png"
   inkscape:export-xdpi="90"
   inkscape:export-ydpi="90">
  <defs
     id="defs4">
    <linearGradient
       id="linearGradient3790">
      <stop
         style="stop-color:#000000;stop-opacity:0.170347"
         offset="0"
         id="stop3792" />
      <stop
         style="stop-color:#ffffff;stop-opacity:1;"
         offset="1"
         id="stop3794" />
    </linearGradient>
    <linearGradient
       inkscape:collect="always"
       xlink:href="#linearGradient3790"
       id="linearGradient3796"
       x1="517.44659"
       y1="630.08191"
       x2="506.09198"
       y2="119.95489"
       gradientUnits="userSpaceOnUse" />
  </defs>
  <sodipodi:namedview
     id="base"
     pagecolor="#ffffff"
     bordercolor="#666666"
     borderopacity="1.0"
     inkscape:pageopacity="0.0"
     inkscape:pageshadow="2"
     inkscape:zoom="1.979899"
     inkscape:cx="135.10638"
     inkscape:cy="98.001075"
     inkscape:document-units="px"
     inkscape:current-layer="layer1"
     showgrid="false"
     inkscape:window-width="1280"
     inkscape:window-height="741"
     inkscape:window-x="0"
     inkscape:window-y="27"
     inkscape:window-maximized="1"
     fit-margin-top="0"
     fit-margin-left="0"
     fit-margin-right="0"
     fit-margin-bottom="0" />
  <metadata
     id="metadata7">
    <rdf:RDF>
      <cc:Work
         rdf:about="">
        <dc:format>image/svg+xml</dc:format>
        <dc:type
           rdf:resource="http://purl.org/dc/dcmitype/StillImage" />
        <dc:title></dc:title>
      </cc:Work>
    </rdf:RDF>
  </metadata>
  <g
     inkscape:label="Layer 1"
     inkscape:groupmode="layer"
     id="layer1"
     transform="translate(-401.27905,-167.95709)">
    <rect
       ry="49.830315"
       y="167.95709"
       x="401.27905"
       height="217.14285"
       width="237.14285"
       id="rect3757"
       style="fill:#ef2929;fill-opacity:1;stroke:none" />
    <path
       style="fill:#ffffff;fill-opacity:1;stroke:none"
       d="M 57.46875 14.6875 C 53.56719 14.6875 51.59375 16.78717 51.59375 20.875 L 51.59375 103.34375 C 60.60282 99.74557 69.91876 96.82351 79.53125 94.5625 C 78.39902 93.51041 77.8125 91.90174 77.8125 89.78125 L 77.8125 34.03125 C 77.8125 30.06729 79.96665 27.8125 83.75 27.8125 L 107.84375 27.8125 C 126.1693 27.8125 145.09375 36.34974 145.09375 67.9375 C 145.09375 76.33711 139.16693 84.12921 130.71875 89.34375 C 139.81388 89.58884 148.75171 90.45056 157.5 91.875 C 160.42326 85.17076 162 77.13511 162 67.9375 C 162 32.26191 141.08704 14.6875 105.5 14.6875 L 57.46875 14.6875 z M 157.5 91.875 C 153.92714 100.06906 148.34038 106.32405 141.1875 110.34375 C 137.52239 112.32573 137.5401 113.55153 140.96875 115.78125 C 149.12658 121.23169 156.80415 132.12307 164.84375 149.09375 L 185.53125 192.34375 C 187.65938 196.67932 185.8922 199.625 181.28125 199.625 L 160.09375 199.625 C 156.6651 199.625 154.55729 198.15709 153.375 194.8125 L 137.28125 152.21875 C 125.57655 127.44403 116.8542 121.46875 97.9375 121.46875 L 86.09375 121.46875 C 82.31041 121.46875 80.1875 123.56842 80.1875 127.65625 L 80.1875 193.4375 C 80.1875 197.40146 78.18281 199.625 74.28125 199.625 L 57.46875 199.625 C 53.68541 199.625 51.59375 197.40146 51.59375 193.4375 L 51.59375 103.34375 C 33.60475 110.5285 16.90253 120.26077 2 132.09375 L 2 165.03125 C 2 192.22398 23.83317 214.09375 50.96875 214.09375 L 186.125 214.09375 C 213.26059 214.09375 235.09375 192.22398 235.09375 165.03125 L 235.09375 122.3125 C 212.18671 107.07374 185.86044 96.49274 157.5 91.875 z M 130.71875 89.34375 C 128.90206 89.29475 127.07859 89.25 125.25 89.25 C 109.51073 89.25 94.20034 91.11209 79.53125 94.5625 C 80.51556 95.47714 81.93555 95.96875 83.75 95.96875 L 107.84375 95.96875 C 115.89975 95.96875 124.09155 93.4343 130.71875 89.34375 z M 232.53125 164.34375 L 210.1875 194.09375 L 189.09375 164.6875 L 232.53125 164.34375 z "
       transform="translate(401.27905,167.95709)"
       id="rect2985" />
  </g>
</svg>
