<?xml version="1.0" encoding="UTF-8" standalone="no"?>
<!-- Created with Inkscape (http://www.inkscape.org/) -->

<svg
   xmlns:dc="http://purl.org/dc/elements/1.1/"
   xmlns:cc="http://creativecommons.org/ns#"
   xmlns:rdf="http://www.w3.org/1999/02/22-rdf-syntax-ns#"
   xmlns:svg="http://www.w3.org/2000/svg"
   xmlns="http://www.w3.org/2000/svg"
   xmlns:xlink="http://www.w3.org/1999/xlink"
   xmlns:sodipodi="http://sodipodi.sourceforge.net/DTD/sodipodi-0.dtd"
   xmlns:inkscape="http://www.inkscape.org/namespaces/inkscape"
   width="237.14285"
   height="217.14285"
   id="svg2"
   version="1.1"
   inkscape:version="0.48.4 r9939"
   sodipodi:docname="logo.svg"
   inkscape:export-filename="/home/jeremi/Projects/RERows/icons/logo.png"
   inkscape:export-xdpi="90"
   inkscape:export-ydpi="90">
  <defs
     id="defs4">
    <linearGradient
       id="linearGradient3790">
      <stop
         style="stop-color:#000000;stop-opacity:0.170347"
         offset="0"
         id="stop3792" />
      <stop
         style="stop-color:#ffffff;stop-opacity:1;"
         offset="1"
         id="stop3794" />
    </linearGradient>
    <linearGradient
       inkscape:collect="always"
       xlink:href="#linearGradient3790"
       id="linearGradient3796"
       x1="517.44659"
       y1="630.08191"
       x2="506.09198"
       y2="119.95489"
       gradientUnits="userSpaceOnUse" />
  </defs>
  <sodipodi:namedview
     id="base"
     pagecolor="#ffffff"
     bordercolor="#666666"
     borderopacity="1.0"
     inkscape:pageopacity="0.0"
     inkscape:pageshadow="2"
     inkscape:zoom="0.98994949"
     inkscape:cx="-59.698023"
     inkscape:cy="121.73535"
     inkscape:document-units="px"
     inkscape:current-layer="layer1"
     showgrid="false"
     inkscape:window-width="1280"
     inkscape:window-height="741"
     inkscape:window-x="0"
     inkscape:window-y="27"
     inkscape:window-maximized="1"
     fit-margin-top="0"
     fit-margin-left="0"
     fit-margin-right="0"
     fit-margin-bottom="0" />
  <metadata
     id="metadata7">
    <rdf:RDF>
      <cc:Work
         rdf:about="">
        <dc:format>image/svg+xml</dc:format>
        <dc:type
           rdf:resource="http://purl.org/dc/dcmitype/StillImage" />
        <dc:title></dc:title>
      </cc:Work>
    </rdf:RDF>
  </metadata>
  <g
     inkscape:label="Layer 1"
     inkscape:groupmode="layer"
     id="layer1"
     transform="translate(-401.27905,-167.95709)">
    <rect
       ry="49.830315"
       y="167.95709"
       x="401.27905"
       height="217.14285"
       width="237.14285"
       id="rect3757"
       style="fill:#ef2929;fill-opacity:1;stroke:none" />
    <path
       style="fill:#ffffff;fill-opacity:1;stroke:none"
       d="m 458.75705,182.65625 c -3.90156,0 -5.89776,2.09939 -5.89776,6.18722 l 0,82.46549 c 9.00907,-3.59818 18.34044,-6.54269 27.95293,-8.8037 -1.13223,-1.05209 -1.72018,-2.65075 -1.72018,-4.77124 l 0,-55.74655 c 0,-3.96396 2.14513,-6.21801 5.92848,-6.21801 l 24.11323,0 c 18.32555,0 37.22961,8.55222 37.22961,40.13998 0,8.39961 -5.92761,16.17909 -14.37579,21.39363 9.09513,0.24509 18.03737,1.0997 26.78566,2.52414 2.92326,-6.70424 4.51548,-14.72016 4.51548,-23.91777 0,-35.67559 -20.93316,-53.25319 -56.5202,-53.25319 l -48.01146,0 z m 100.01618,77.17096 c -3.57286,8.19406 -9.15811,14.44961 -16.31099,18.46931 -3.66511,1.98198 -3.64367,3.21873 -0.21502,5.44845 8.15783,5.45044 15.8279,16.33565 23.8675,33.30633 l 20.70359,43.24898 c 2.12813,4.33557 0.34122,7.29538 -4.26973,7.29538 l -21.16436,0 c -3.42865,0 -5.54484,-1.48821 -6.72713,-4.8328 L 538.56112,320.1603 C 526.85642,295.38558 518.1287,289.43968 499.212,289.43968 l -11.82624,0 c -3.78334,0 -5.92847,2.09939 -5.92847,6.18722 l 0,65.78154 c 0,3.96396 -1.9962,6.18722 -5.89776,6.18722 l -16.80248,0 c -3.78334,0 -5.89776,-2.22326 -5.89776,-6.18722 l 0,-90.09948 c -17.989,7.18475 -34.67551,16.91759 -49.57804,28.75057 l 0,32.93695 c 0,27.19273 21.82811,49.06681 48.96369,49.06681 l 135.157,0 c 27.13559,0 48.9637,-21.87408 48.9637,-49.06681 l 0,-42.72569 C 613.4586,275.03203 587.13367,264.44495 558.77323,259.82721 z m -26.78566,-2.52414 c -1.81669,-0.049 -3.63912,-0.0923 -5.46771,-0.0923 -15.73927,0 -31.03855,1.84413 -45.70764,5.29454 0.98431,0.91464 2.39385,1.41598 4.2083,1.41598 l 24.11323,0 c 8.056,0 16.22662,-2.52762 22.85382,-6.61817 z"
       id="rect2985"
       inkscape:connector-curvature="0" />
  </g>
</svg>
